Coordinates
version=1
nRows=14
nColumns=24
inDegrees=yes

Units are S.I. units (second, meters, Newtons, ...)
Angles are in degrees.

endheader
time	pelvis_tilt	pelvis_list	pelvis_rotation	pelvis_tx	pelvis_ty	pelvis_tz	hip_flexion_r	hip_adduction_r	hip_rotation_r	knee_angle_r	ankle_angle_r	subtalar_angle_r	mtp_angle_r	hip_flexion_l	hip_adduction_l	hip_rotation_l	knee_angle_l	ankle_angle_l	subtalar_angle_l	mtp_angle_l	lumbar_extension	lumbar_bending	lumbar_rotation
      1.09183333	     -0.60469894	      0.36466211	     -2.93351132	     -0.02624622	      0.99189229	      0.30237762	    -17.11871298	      2.15140682	      2.23602917	     -6.20138456	     12.09489188	     -9.81096522	      6.82582261	     22.56432851	     -0.51857944	     -6.11193893	      2.64886150	      2.53470306	     -5.90751526	      7.46357534	     -2.80320339	     -0.76657134	     10.58528076
      1.09600000	     -0.61327619	      0.46266791	     -3.00454226	     -0.02010906	      0.99134889	      0.30200197	    -17.22380575	      1.97590905	      2.17864866	     -6.70192068	     12.10833967	     -9.63274057	      6.88702601	     22.58670880	     -0.40321089	     -6.02678857	      2.39553867	      2.52325733	     -6.19259492	      7.49249234	     -2.75413013	     -0.89476484	     10.70314362
      1.10016667	     -0.59631679	      0.58365349	     -3.07686786	     -0.01392917	      0.99087629	      0.30162865	    -17.35012902	      1.77580547	      2.14570147	     -7.21537293	     12.11902914	     -9.47854180	      6.96640634	     22.58565199	     -0.26238690	     -5.93611884	      2.06029749	      2.49336960	     -6.48088065	      7.53045599	     -2.73166648	     -1.06165605	     10.82166542
      1.10433333	     -0.61359455	      0.71358941	     -3.15060153	     -0.00769519	      0.99040595	      0.30125035	    -17.42163496	      1.56719155	      2.11541129	     -7.76452355	     12.10213297	     -9.33814268	      7.06903864	     22.62566307	     -0.11315191	     -5.82558870	      1.64919338	      2.42183653	     -6.79452184	      7.58053752	     -2.66067917	     -1.23356709	     10.93858661
      1.10850000	     -0.58640384	      0.85542488	     -3.21423192	     -0.00142947	      0.99003618	      0.30086022	    -17.55035374	      1.35163971	      2.13820563	     -8.29082549	     11.98006259	     -9.36099499	      7.09088821	     22.63923394	      0.05191252	     -5.77344096	      1.13771142	      2.36974057	     -6.96786037	      7.59172258	     -2.65143835	     -1.41588640	     10.97035122
      1.11266667	     -0.60916005	      1.01106589	     -3.29147172	      0.00488424	      0.98962976	      0.30044598	    -17.55909617	      1.10969654	      2.04239400	     -8.95600255	     11.99942188	     -9.07478644	      7.25015487	     22.66645490	      0.23660015	     -5.56298467	      0.65869684	      2.15801332	     -7.46803424	      7.66693306	     -2.55229626	     -1.62655654	     11.17393620
      1.11683333	     -0.59420432	      1.18051408	     -3.35658290	      0.01124152	      0.98931585	      0.30001308	    -17.61651104	      0.85890795	      1.98765010	     -9.60097069	     11.90884179	     -8.94247399	      7.46909564	     22.66133055	      0.44232560	     -5.37812008	      0.12092774	      1.93796750	     -7.89249373	      7.77157455	     -2.50569225	     -1.84942442	     11.27139871
      1.12100000	     -0.52176391	      1.36846065	     -3.40392851	      0.01765576	      0.98912226	      0.29955664	    -17.74001043	      0.59264749	      1.92365649	    -10.23439441	     11.72675186	     -8.91083671	      8.76695868	     22.56595171	      0.68459860	     -5.10944555	     -0.38817956	      1.60130691	     -8.43468746	      8.38958074	     -2.52593943	     -2.10495523	     11.30706998
      1.12516667	     -0.58342986	      1.54365395	     -3.47799504	      0.02409898	      0.98878877	      0.29912887	    -17.67493449	      0.34303468	      1.93114642	    -10.95554179	     11.55796913	     -8.87198471	      8.86416371	     22.68033499	      0.88304531	     -5.04012515	     -1.08006848	      1.43025667	     -8.61603849	      8.43318439	     -2.36584139	     -2.33804301	     11.41352808
      1.12933333	     -0.54552748	      1.72147834	     -3.51173721	      0.03054392	      0.98861085	      0.29859702	    -17.70622021	      0.08910082	      1.82443857	    -11.69581520	     11.38098299	     -8.72474462	      9.43196479	     22.65177934	      1.12239066	     -4.77527008	     -1.70477025	      1.07077391	     -9.15031396	      8.67638874	     -2.34087991	     -2.55839977	     11.52815609
      1.13350000	     -0.57871106	      1.89825143	     -3.58493193	      0.03702092	      0.98839434	      0.29811394	    -17.60896069	     -0.16806221	      1.78263959	    -12.53235694	     11.14849506	     -8.65642817	      9.67733691	     22.70246576	      1.33453855	     -4.64676495	     -2.36011186	      0.71162963	     -9.42816297	      8.77152241	     -2.21660231	     -2.77052516	     11.61449982
      1.13766667	     -0.55788620	      2.09718080	     -3.63278454	      0.04354730	      0.98828319	      0.29758741	    -17.56796506	     -0.44526750	      1.69901937	    -13.37149962	     10.87493844	     -8.58036681	      9.98974916	     22.67556728	      1.58940827	     -4.44180547	     -2.98757972	      0.29209408	     -9.83569646	      8.88319791	     -2.15402720	     -3.02489543	     11.68671869
      1.14183333	     -0.56146736	      2.28969456	     -3.67323650	      0.05009170	      0.98818212	      0.29703941	    -17.47425483	     -0.71068373	      1.61905812	    -14.25742191	     10.55154734	     -8.54260597	     10.34847632	     22.68010022	      1.83808649	     -4.25228350	     -3.63828708	     -0.12271319	    -10.19499178	      8.99953994	     -2.05847590	     -3.26710953	     11.74419023
      1.14600000	     -0.51033732	      2.48524687	     -3.69160004	      0.05666073	      0.98818686	      0.29645877	    -17.43911839	     -0.97485153	      1.52651495	    -15.12793967	     10.07800349	     -8.64408854	     15.20511014	     22.63527643	      2.09911867	     -4.08727737	     -4.31732056	     -0.52509292	    -10.52180247	     10.44715388	     -2.03119069	     -3.52102107	     11.75266411
